<svg width="11" height="20" viewBox="0 0 11 20" fill="none" xmlns="http://www.w3.org/2000/svg">
<path d="M7.71484 13.2598C7.71484 12.7259 7.5651 12.3027 7.26562 11.9902C6.97266 11.6712 6.47135 11.3783 5.76172 11.1113C5.05208 10.8444 4.4401 10.5807 3.92578 10.3203C3.41146 10.0534 2.96875 9.75065 2.59766 9.41211C2.23307 9.06706 1.94661 8.66341 1.73828 8.20117C1.53646 7.73893 1.43555 7.1888 1.43555 6.55078C1.43555 5.45052 1.78711 4.54883 2.49023 3.8457C3.19336 3.14258 4.1276 2.73242 5.29297 2.61523V0.525391H6.85547V2.64453C8.00781 2.80729 8.90951 3.28906 9.56055 4.08984C10.2116 4.88411 10.5371 5.91602 10.5371 7.18555H7.71484C7.71484 6.4043 7.55208 5.82161 7.22656 5.4375C6.90755 5.04688 6.47786 4.85156 5.9375 4.85156C5.40365 4.85156 4.99023 5.00456 4.69727 5.31055C4.4043 5.61003 4.25781 6.02669 4.25781 6.56055C4.25781 7.05534 4.40104 7.45247 4.6875 7.75195C4.97396 8.05143 5.50456 8.35742 6.2793 8.66992C7.06055 8.98242 7.70182 9.27865 8.20312 9.55859C8.70443 9.83203 9.1276 10.1445 9.47266 10.4961C9.81771 10.8411 10.0814 11.2383 10.2637 11.6875C10.446 12.1302 10.5371 12.6478 10.5371 13.2402C10.5371 14.347 10.1921 15.2454 9.50195 15.9355C8.81185 16.6257 7.86133 17.0326 6.65039 17.1562V19.0996H5.09766V17.166C3.76302 17.0228 2.72786 16.5508 1.99219 15.75C1.26302 14.9427 0.898438 13.8717 0.898438 12.5371H3.7207C3.7207 13.3118 3.90299 13.9076 4.26758 14.3242C4.63867 14.7344 5.16927 14.9395 5.85938 14.9395C6.43229 14.9395 6.88477 14.7897 7.2168 14.4902C7.54883 14.1842 7.71484 13.7741 7.71484 13.2598Z" fill="#4085E6"/>
</svg>
