<svg width="33" height="19" viewBox="0 0 33 19" fill="none" xmlns="http://www.w3.org/2000/svg">
<path d="M21.2705 8.54035C20.7335 8.01036 19.8629 8.01036 19.326 8.54035C18.789 9.07035 18.789 9.92965 19.326 10.4596C19.8629 10.9896 20.7335 10.9896 21.2705 10.4596C21.8075 9.92965 21.8075 9.07035 21.2705 8.54035Z" fill="#61FF00"/>
<path d="M22.2428 5.6614C22.7798 5.1314 23.6504 5.1314 24.1874 5.6614C24.7243 6.19139 24.7243 7.05069 24.1874 7.58069C23.6504 8.11068 22.7798 8.11068 22.2428 7.58069C21.7058 7.05069 21.7058 6.19139 22.2428 5.6614Z" fill="#61FF00"/>
<path d="M27.1042 8.54035C26.5672 8.01036 25.6966 8.01036 25.1597 8.54035C24.6227 9.07035 24.6227 9.92965 25.1597 10.4596C25.6966 10.9896 26.5672 10.9896 27.1042 10.4596C27.6412 9.92965 27.6412 9.07035 27.1042 8.54035Z" fill="#61FF00"/>
<path d="M22.2428 11.4193C22.7798 10.8893 23.6504 10.8893 24.1874 11.4193C24.7243 11.9493 24.7243 12.8086 24.1874 13.3386C23.6504 13.8686 22.7798 13.8686 22.2428 13.3386C21.7058 12.8086 21.7058 11.9493 22.2428 11.4193Z" fill="#61FF00"/>
<path d="M8.25 10.8571H5.5V8.14286H8.25V5.42857H11V8.14286H13.75V10.8571H11V13.5714H8.25V10.8571Z" fill="#61FF00"/>
<path fill-rule="evenodd" clip-rule="evenodd" d="M9.625 0C4.30926 0 0 4.25329 0 9.5C0 14.7467 4.30926 19 9.625 19H23.375C28.6907 19 33 14.7467 33 9.5C33 4.25329 28.6907 0 23.375 0H9.625ZM23.375 2.71429H9.625C5.82804 2.71429 2.75 5.75235 2.75 9.5C2.75 13.2476 5.82804 16.2857 9.625 16.2857H23.375C27.172 16.2857 30.25 13.2476 30.25 9.5C30.25 5.75235 27.172 2.71429 23.375 2.71429Z" fill="#61FF00"/>
</svg>
