<svg width="31" height="31" viewBox="0 0 31 31" fill="none" xmlns="http://www.w3.org/2000/svg">
<path fill-rule="evenodd" clip-rule="evenodd" d="M11.8182 27.7727C11.8182 28.4505 11.2687 29 10.5909 29C9.91311 29 9.36364 28.4505 9.36364 27.7727C9.36364 27.0949 9.91311 26.5455 10.5909 26.5455C11.2687 26.5455 11.8182 27.0949 11.8182 27.7727ZM16.7273 27.7727C16.7273 28.4505 16.1778 29 15.5 29C14.8222 29 14.2727 28.4505 14.2727 27.7727C14.2727 27.0949 14.8222 26.5455 15.5 26.5455C16.1778 26.5455 16.7273 27.0949 16.7273 27.7727ZM20.4091 29C21.0869 29 21.6364 28.4505 21.6364 27.7727C21.6364 27.0949 21.0869 26.5455 20.4091 26.5455C19.7313 26.5455 19.1818 27.0949 19.1818 27.7727C19.1818 28.4505 19.7313 29 20.4091 29Z" fill="#405EDA"/>
<path fill-rule="evenodd" clip-rule="evenodd" d="M11.8182 3.22727C11.8182 3.90508 11.2687 4.45455 10.5909 4.45455C9.91311 4.45455 9.36364 3.90508 9.36364 3.22727C9.36364 2.54947 9.91311 2 10.5909 2C11.2687 2 11.8182 2.54947 11.8182 3.22727ZM16.7273 3.22727C16.7273 3.90508 16.1778 4.45455 15.5 4.45455C14.8222 4.45455 14.2727 3.90508 14.2727 3.22727C14.2727 2.54947 14.8222 2 15.5 2C16.1778 2 16.7273 2.54947 16.7273 3.22727ZM20.4091 4.45455C21.0869 4.45455 21.6364 3.90508 21.6364 3.22727C21.6364 2.54947 21.0869 2 20.4091 2C19.7313 2 19.1818 2.54947 19.1818 3.22727C19.1818 3.90508 19.7313 4.45455 20.4091 4.45455ZM11.8182 27.7727C11.8182 28.4505 11.2687 29 10.5909 29C9.91311 29 9.36364 28.4505 9.36364 27.7727C9.36364 27.0949 9.91311 26.5455 10.5909 26.5455C11.2687 26.5455 11.8182 27.0949 11.8182 27.7727ZM16.7273 27.7727C16.7273 28.4505 16.1778 29 15.5 29C14.8222 29 14.2727 28.4505 14.2727 27.7727C14.2727 27.0949 14.8222 26.5455 15.5 26.5455C16.1778 26.5455 16.7273 27.0949 16.7273 27.7727ZM20.4091 29C21.0869 29 21.6364 28.4505 21.6364 27.7727C21.6364 27.0949 21.0869 26.5455 20.4091 26.5455C19.7313 26.5455 19.1818 27.0949 19.1818 27.7727C19.1818 28.4505 19.7313 29 20.4091 29ZM29 20.4091C29 19.7313 28.4505 19.1818 27.7727 19.1818C27.0949 19.1818 26.5455 19.7313 26.5455 20.4091C26.5455 21.0869 27.0949 21.6364 27.7727 21.6364C28.4505 21.6364 29 21.0869 29 20.4091ZM29 15.5C29 14.8222 28.4505 14.2727 27.7727 14.2727C27.0949 14.2727 26.5455 14.8222 26.5455 15.5C26.5455 16.1778 27.0949 16.7273 27.7727 16.7273C28.4505 16.7273 29 16.1778 29 15.5ZM27.7727 9.36364C28.4505 9.36364 29 9.9131 29 10.5909C29 11.2687 28.4505 11.8182 27.7727 11.8182C27.0949 11.8182 26.5455 11.2687 26.5455 10.5909C26.5455 9.9131 27.0949 9.36364 27.7727 9.36364ZM3.22727 19.1818C3.90508 19.1818 4.45455 19.7313 4.45455 20.4091C4.45455 21.0869 3.90508 21.6364 3.22727 21.6364C2.54947 21.6364 2 21.0869 2 20.4091C2 19.7313 2.54947 19.1818 3.22727 19.1818ZM3.22727 14.2727C3.90508 14.2727 4.45455 14.8222 4.45455 15.5C4.45455 16.1778 3.90508 16.7273 3.22727 16.7273C2.54947 16.7273 2 16.1778 2 15.5C2 14.8222 2.54947 14.2727 3.22727 14.2727ZM4.45455 10.5909C4.45455 9.9131 3.90508 9.36364 3.22727 9.36364C2.54947 9.36364 2 9.9131 2 10.5909C2 11.2687 2.54947 11.8182 3.22727 11.8182C3.90508 11.8182 4.45455 11.2687 4.45455 10.5909ZM21.6364 8.13636H9.36364C8.68583 8.13636 8.13636 8.68583 8.13636 9.36364V21.6364C8.13636 22.3142 8.68583 22.8636 9.36364 22.8636H21.6364C22.3142 22.8636 22.8636 22.3142 22.8636 21.6364V9.36364C22.8636 8.68583 22.3142 8.13636 21.6364 8.13636ZM9.36364 5.68182C7.33022 5.68182 5.68182 7.33022 5.68182 9.36364V21.6364C5.68182 23.6698 7.33022 25.3182 9.36364 25.3182H21.6364C23.6698 25.3182 25.3182 23.6698 25.3182 21.6364V9.36364C25.3182 7.33022 23.6698 5.68182 21.6364 5.68182H9.36364ZM17.9545 13.0455H13.0455V17.9545H17.9545V13.0455ZM10.5909 10.5909V20.4091H20.4091V10.5909H10.5909Z" fill="#405EDA"/>
</svg>
