<svg width="43" height="25" viewBox="0 0 43 25" fill="none" xmlns="http://www.w3.org/2000/svg">
<path d="M27.7161 11.2373C27.0164 10.5399 25.882 10.5399 25.1823 11.2373C24.4826 11.9347 24.4826 13.0653 25.1823 13.7627C25.882 14.4601 27.0164 14.4601 27.7161 13.7627C28.4158 13.0653 28.4158 11.9347 27.7161 11.2373Z" fill="#DADADA"/>
<path d="M28.9831 7.44921C29.6827 6.75184 30.8172 6.75184 31.5169 7.44921C32.2165 8.14657 32.2165 9.27722 31.5169 9.97459C30.8172 10.672 29.6827 10.672 28.9831 9.97459C28.2834 9.27722 28.2834 8.14657 28.9831 7.44921Z" fill="#DADADA"/>
<path d="M35.3176 11.2373C34.6179 10.5399 33.4835 10.5399 32.7838 11.2373C32.0841 11.9347 32.0841 13.0653 32.7838 13.7627C33.4835 14.4601 34.6179 14.4601 35.3176 13.7627C36.0173 13.0653 36.0173 11.9347 35.3176 11.2373Z" fill="#DADADA"/>
<path d="M28.9831 15.0254C29.6827 14.328 30.8172 14.328 31.5169 15.0254C32.2165 15.7228 32.2165 16.8534 31.5169 17.5508C30.8172 18.2482 29.6827 18.2482 28.9831 17.5508C28.2834 16.8534 28.2834 15.7228 28.9831 15.0254Z" fill="#DADADA"/>
<path d="M10.75 14.2857H7.16667V10.7143H10.75V7.14286H14.3333V10.7143H17.9167V14.2857H14.3333V17.8571H10.75V14.2857Z" fill="#DADADA"/>
<path fill-rule="evenodd" clip-rule="evenodd" d="M12.5417 0C5.6151 0 0 5.59644 0 12.5C0 19.4036 5.6151 25 12.5417 25H30.4583C37.3849 25 43 19.4036 43 12.5C43 5.59644 37.3849 0 30.4583 0H12.5417ZM30.4583 3.57143H12.5417C7.59412 3.57143 3.58333 7.56889 3.58333 12.5C3.58333 17.4311 7.59412 21.4286 12.5417 21.4286H30.4583C35.4059 21.4286 39.4167 17.4311 39.4167 12.5C39.4167 7.56889 35.4059 3.57143 30.4583 3.57143Z" fill="#DADADA"/>
</svg>
