<svg width="29" height="29" viewBox="0 0 29 29" fill="none" xmlns="http://www.w3.org/2000/svg">
<path fill-rule="evenodd" clip-rule="evenodd" d="M22.2083 28.375C20.5055 28.375 19.125 26.9945 19.125 25.2917V19.125C19.125 17.4221 20.5055 16.0417 22.2083 16.0417H25.2917V14.5C25.2917 8.53993 20.4601 3.70833 14.5 3.70833C8.53993 3.70833 3.70833 8.53993 3.70833 14.5V16.0417H6.79167C8.49454 16.0417 9.875 17.4221 9.875 19.125V25.2917C9.875 26.9945 8.49454 28.375 6.79167 28.375H0.625V14.5C0.625 6.83705 6.83705 0.625 14.5 0.625C22.163 0.625 28.375 6.83705 28.375 14.5V28.375H22.2083ZM25.2917 19.125H22.2083V25.2917H25.2917V19.125ZM6.79167 19.125H3.70833V25.2917H6.79167V19.125Z" fill="#DADADA"/>
</svg>
