<svg width="26" height="18" viewBox="0 0 26 18" fill="none" xmlns="http://www.w3.org/2000/svg">
<path d="M0 1.27953C0 0.572866 0.579232 0 1.29375 0H11.7062C12.4208 0 13 0.572866 13 1.27953C13 1.9862 12.4208 2.55907 11.7062 2.55907H1.29375C0.579233 2.55907 0 1.9862 0 1.27953Z" fill="#DADADA"/>
<path d="M0 8.99969C0 8.29302 0.579232 7.72015 1.29375 7.72015H24.7062C25.4208 7.72015 26 8.29302 26 8.99969C26 9.70635 25.4208 10.2792 24.7062 10.2792H1.29375C0.579233 10.2792 0 9.70635 0 8.99969Z" fill="#DADADA"/>
<path d="M1.29375 15.4409C0.579232 15.4409 0 16.0138 0 16.7205C0 17.4271 0.579233 18 1.29375 18H16.9062C17.6208 18 18.2 17.4271 18.2 16.7205C18.2 16.0138 17.6208 15.4409 16.9062 15.4409H1.29375Z" fill="#DADADA"/>
</svg>
