<svg width="25" height="37" viewBox="0 0 25 37" fill="none" xmlns="http://www.w3.org/2000/svg">
<path d="M12.5 7.70833C11.6371 7.70833 10.9375 8.39856 10.9375 9.25V15.4167C10.9375 16.2681 11.6371 16.9583 12.5 16.9583C13.3629 16.9583 14.0625 16.2681 14.0625 15.4167V9.25C14.0625 8.39856 13.3629 7.70833 12.5 7.70833Z" fill="#DADADA"/>
<path fill-rule="evenodd" clip-rule="evenodd" d="M0 12.3333C0 5.52182 5.59644 0 12.5 0C19.4036 0 25 5.52182 25 12.3333V24.6667C25 31.4782 19.4036 37 12.5 37C5.59644 37 0 31.4782 0 24.6667V12.3333ZM21.875 12.3333V24.6667C21.875 29.7753 17.6777 33.9167 12.5 33.9167C7.32233 33.9167 3.125 29.7753 3.125 24.6667V12.3333C3.125 7.2247 7.32233 3.08333 12.5 3.08333C17.6777 3.08333 21.875 7.2247 21.875 12.3333Z" fill="#DADADA"/>
</svg>
