<svg width="28" height="26" viewBox="0 0 28 26" fill="none" xmlns="http://www.w3.org/2000/svg">
<path fill-rule="evenodd" clip-rule="evenodd" d="M6.22222 0C9.12153 0 11.5577 1.94965 12.2484 4.58824H24.8889V7.64706H12.2484C11.5577 10.2856 9.12153 12.2353 6.22222 12.2353C2.78578 12.2353 0 9.49633 0 6.11765C0 2.73896 2.78578 0 6.22222 0ZM6.22222 9.17647C7.94044 9.17647 9.33333 7.80699 9.33333 6.11765C9.33333 4.42831 7.94044 3.05882 6.22222 3.05882C4.504 3.05882 3.11111 4.42831 3.11111 6.11765C3.11111 7.80699 4.504 9.17647 6.22222 9.17647Z" fill="#DADADA"/>
<path fill-rule="evenodd" clip-rule="evenodd" d="M21.7778 26C18.8785 26 16.4423 24.0503 15.7516 21.4118H3.11111V18.3529H15.7516C16.4423 15.7144 18.8785 13.7647 21.7778 13.7647C25.2142 13.7647 28 16.5037 28 19.8824C28 23.261 25.2142 26 21.7778 26ZM21.7778 22.9412C23.496 22.9412 24.8889 21.5717 24.8889 19.8824C24.8889 18.193 23.496 16.8235 21.7778 16.8235C20.0596 16.8235 18.6667 18.193 18.6667 19.8824C18.6667 21.5717 20.0596 22.9412 21.7778 22.9412Z" fill="#DADADA"/>
</svg>
