<svg width="28" height="28" viewBox="0 0 28 28" fill="none" xmlns="http://www.w3.org/2000/svg">
<path fill-rule="evenodd" clip-rule="evenodd" d="M23.5667 16.4198L24.5 17.1914C24.9429 17.5512 25.0613 18.179 24.78 18.676L23.4267 21.014C23.1468 21.4693 22.5943 21.6763 22.085 21.5166L20.9183 21.0958C20.2298 20.838 19.4604 20.9203 18.8417 21.3179C18.5674 21.5078 18.2788 21.6758 17.9783 21.8206C17.3219 22.1579 16.8633 22.7865 16.7417 23.5156L16.5433 24.6846C16.4509 25.2563 15.9546 25.674 15.3767 25.6666H12.6933C12.1154 25.674 11.6191 25.2563 11.5267 24.6846L11.3283 23.5156C11.2067 22.7865 10.7482 22.1579 10.0917 21.8206C9.79126 21.6758 9.5026 21.5078 9.22834 21.3179C8.60967 20.9203 7.84018 20.838 7.15168 21.0958L5.98501 21.5166C5.45506 21.7139 4.8602 21.5021 4.57334 21.014L3.22001 18.676C2.93876 18.179 3.05717 17.5512 3.50001 17.1914L4.43334 16.4198C4.99924 15.9491 5.31053 15.2387 5.27334 14.5027V14V13.4973C5.31053 12.7614 4.99924 12.0509 4.43334 11.5802L3.50001 10.8087C3.05717 10.4488 2.93876 9.82098 3.22001 9.32403L4.57334 6.98604C4.85805 6.50913 5.43849 6.29898 5.96168 6.48337L7.12834 6.90421C7.81684 7.16204 8.58634 7.07974 9.20501 6.6821C9.47927 6.49225 9.76793 6.32418 10.0683 6.17944C10.7069 5.83106 11.1469 5.20432 11.2583 4.48439L11.4567 3.3154C11.5491 2.74369 12.0454 2.32599 12.6233 2.33344H15.3067C15.8846 2.32599 16.3809 2.74369 16.4733 3.3154L16.6717 4.48439C16.7933 5.21353 17.2519 5.8421 17.9083 6.17944C18.2088 6.32418 18.4974 6.49225 18.7717 6.6821C19.3904 7.07974 20.1598 7.16204 20.8483 6.90421L22.015 6.48337C22.545 6.28608 23.1398 6.4979 23.4267 6.98604L24.78 9.32403C25.0613 9.82098 24.9429 10.4488 24.5 10.8087L23.5667 11.5802C23.0008 12.0509 22.6895 12.7614 22.7267 13.4973V14V14.5027C22.6895 15.2387 23.0008 15.9491 23.5667 16.4198ZM10.5 14C10.5 15.9369 12.067 17.507 14 17.507C14.9283 17.507 15.8185 17.1375 16.4749 16.4798C17.1313 15.8221 17.5 14.9301 17.5 14C17.5 12.0631 15.933 10.493 14 10.493C12.067 10.493 10.5 12.0631 10.5 14Z" fill="#B2BAC2"/>
</svg>
