<svg width="28" height="28" viewBox="0 0 28 28" fill="none" xmlns="http://www.w3.org/2000/svg">
<path fill-rule="evenodd" clip-rule="evenodd" d="M14.0035 4.66666C11.4252 4.66666 9.33507 6.75599 9.33507 9.33332C9.33507 10.571 9.82692 11.758 10.7024 12.6332C11.5779 13.5083 12.7654 14 14.0035 14C16.5818 14 18.6719 11.9107 18.6719 9.33332C18.6719 6.75599 16.5818 4.66666 14.0035 4.66666ZM21.5313 18.27L23.212 21.6417C23.394 22.0028 23.376 22.4323 23.1644 22.777C22.9528 23.1216 22.5778 23.3321 22.1733 23.3333H5.83374C5.42923 23.3321 5.0542 23.1216 4.84259 22.777C4.63099 22.4323 4.61298 22.0028 4.79502 21.6417L6.47565 18.27C7.06947 17.081 8.28572 16.3307 9.61517 16.3333H18.3918C19.7213 16.3307 20.9375 17.081 21.5313 18.27Z" fill="#B2BAC2"/>
</svg>
